<svg width="1200" height="1200" viewBox="0 0 1200 1200" fill="none" xmlns="http://www.w3.org/2000/svg">
<g clip-path="url(#clip0_243_13)">
<path d="M129.9 761.3H90V657H239.8V1056H129.9V761.3ZM659.762 761.3H404.962V951H659.762V761.3ZM295.762 1056V657H769.662V1056H295.762Z" fill="#202148"/>
<path d="M129.9 260.3H90V156H239.8V555H129.9V260.3ZM659.762 260.3H404.962V450H659.762V260.3ZM295.762 555V156H769.662V555H295.762Z" fill="#202148"/>
<path fill-rule="evenodd" clip-rule="evenodd" d="M1111 154H814V368H885V809H1111V368V154Z" fill="#2196F3"/>
<path d="M901.7 846.9H896V832H917.4V889H901.7V846.9ZM977.395 846.9H940.995V874H977.395V846.9ZM925.395 889V832H993.095V889H925.395ZM1006.88 846.9H1001.18V832H1022.58V889H1006.88V846.9ZM1082.57 846.9H1046.17V874H1082.57V846.9ZM1030.57 889V832H1098.27V889H1030.57Z" fill="#202148"/>
<path d="M948 933.9H911.6V961H948V933.9ZM896 976V919H963.7V976H896ZM977.481 933.9H971.781V919H993.181V976H977.481V933.9ZM1053.18 933.9H1016.78V961H1053.18V933.9ZM1001.18 976V919H1068.88V976H1001.18ZM1082.66 933.9H1076.96V919H1098.36V976H1082.66V933.9Z" fill="#202148"/>
<path d="M901.7 1022.9H896V1008H917.4V1065H901.7V1022.9ZM977.395 1022.9H940.995V1050H977.395V1022.9ZM925.395 1065V1008H993.095V1065H925.395ZM1006.88 1022.9H1001.18V1008H1022.58V1065H1006.88V1022.9ZM1082.57 1022.9H1046.17V1050H1082.57V1022.9ZM1030.57 1065V1008H1098.27V1065H1030.57Z" fill="#202148"/>
</g>
<defs>
<clipPath id="clip0_243_13">
<rect width="1200" height="1200" fill="white"/>
</clipPath>
</defs>
</svg>
